<svg version="1.1" id="Layer_1" xmlns="http://www.w3.org/2000/svg" xmlns:xlink="http://www.w3.org/1999/xlink" x="0px" y="0px"
	 width="100%" viewBox="0 0 1024 1024" enable-background="new 0 0 1024 1024" xml:space="preserve">
<path fill="#E4EDEE" opacity="1.000000" stroke="none" 
	d="
M678.000000,1025.000000 
	C452.000000,1025.000000 226.500000,1025.000000 1.000000,1025.000000 
	C1.000000,683.666687 1.000000,342.333344 1.000000,1.000000 
	C342.333344,1.000000 683.666687,1.000000 1025.000000,1.000000 
	C1025.000000,342.333344 1025.000000,683.666687 1025.000000,1025.000000 
	C909.500000,1025.000000 794.000000,1025.000000 678.000000,1025.000000 
M202.910156,579.500000 
	C202.920181,590.164612 202.907486,600.829285 202.948425,611.493774 
	C202.974548,618.295410 205.455902,620.740601 212.354507,620.761963 
	C220.020523,620.785767 227.687912,620.813904 235.352524,620.697144 
	C242.067673,620.594788 244.706680,617.865662 244.764435,611.176147 
	C244.812927,605.557800 244.774414,599.938782 244.774414,594.232361 
	C249.000793,594.232361 252.713089,594.232361 256.620392,594.232361 
	C256.620392,604.682617 256.685455,614.820129 256.596985,624.956360 
	C256.540314,631.447021 259.650940,634.859436 266.162018,635.017883 
	C268.660187,635.078674 271.180511,635.206665 273.656525,634.960266 
	C276.933807,634.634033 278.933563,635.896118 281.188324,638.386230 
	C292.363159,650.727051 303.794281,662.840271 315.314087,674.862244 
	C320.527679,680.303101 327.024109,682.942383 334.733917,682.112061 
	C336.608521,681.910156 338.523346,682.082031 341.236572,682.082031 
	C339.782318,684.323486 339.042877,685.809631 337.992737,687.028076 
	C327.785065,698.871399 317.432251,710.591187 307.338715,722.530457 
	C304.409302,725.995544 302.180084,730.052551 298.678375,735.250732 
	C281.696747,735.250732 262.625549,735.250732 243.443878,735.250732 
	C243.443878,753.192078 243.443878,770.569519 243.443878,787.847778 
	C423.588501,787.847778 603.351257,787.847778 783.386597,787.847778 
	C783.386597,770.155090 783.386597,752.770813 783.386597,735.116089 
	C763.861206,735.116089 744.708374,735.117554 725.555542,735.115601 
	C713.223877,735.114319 713.226013,735.111328 709.331177,723.307495 
	C709.231812,723.006226 708.960938,722.761597 709.168701,723.056641 
	C706.388367,722.170593 703.058716,722.157349 702.049011,720.620178 
	C694.642334,709.344604 690.661743,696.823730 689.505554,682.909485 
	C703.634460,682.909485 717.284668,682.647339 730.916260,683.037415 
	C736.435974,683.195312 740.519653,681.319092 743.123047,676.935852 
	C747.610046,669.381287 752.626038,661.896362 755.586609,653.718506 
	C777.873352,592.156250 778.450806,530.161743 757.691467,468.090851 
	C753.677673,456.089447 748.337097,444.571930 739.818054,434.848572 
	C736.777283,431.377899 733.434631,429.714844 728.589172,429.802948 
	C711.095642,430.121063 693.592529,430.078400 676.096130,429.888794 
	C673.754883,429.863495 670.865356,428.813232 669.185730,427.226044 
	C649.763733,408.873260 628.328064,393.496216 603.690430,382.963715 
	C545.226074,357.970398 486.587616,358.021088 427.886475,382.257721 
	C425.044647,383.431061 422.170441,384.526031 418.751465,385.879059 
	C418.870911,383.311432 418.952606,381.554871 419.026947,379.956299 
	C425.642426,377.167358 428.457733,373.181213 427.475067,368.330505 
	C426.577362,363.899445 419.118378,357.246887 414.787140,357.221069 
	C402.288361,357.146545 389.789032,357.177032 377.289978,357.139496 
	C375.872070,357.135223 374.454681,356.960449 373.054993,356.865967 
	C373.054993,353.391052 373.054993,350.441254 373.054993,346.944305 
	C388.329285,346.944305 403.389587,346.944305 418.795197,346.944305 
	C418.795197,341.771362 418.794708,337.138977 418.795288,332.506561 
	C418.796356,323.863556 415.012909,320.003479 406.445679,319.997833 
	C374.781067,319.977051 343.116486,319.969025 311.451874,319.968811 
	C296.619507,319.968719 281.787048,319.967529 266.954865,320.030090 
	C262.084930,320.050629 257.106445,323.664276 256.857147,327.910980 
	C256.490845,334.151123 256.762726,340.428741 256.762726,347.192657 
	C272.359467,347.192657 287.252014,347.192657 302.092041,347.192657 
	C302.092041,350.800140 302.092041,353.874115 302.092041,357.246246 
	C290.269775,357.246246 278.784912,357.528229 267.323700,357.130524 
	C261.351532,356.923279 256.469666,358.246643 251.791122,362.078613 
	C245.534012,367.203400 246.226624,375.794434 253.612366,379.103149 
	C254.624084,379.556366 255.652649,379.972046 256.555878,380.355225 
	C256.555878,432.305206 256.555878,483.926208 256.555878,535.869507 
	C252.553238,535.869507 248.838547,535.869507 244.783295,535.869507 
	C244.783295,529.996338 244.795395,524.366821 244.780304,518.737427 
	C244.760269,511.262573 242.280472,508.726685 235.003922,508.769196 
	C227.504639,508.813019 220.005188,508.865814 212.506500,508.965576 
	C205.171829,509.063171 202.965683,511.302490 202.960724,518.503967 
	C202.946945,538.502625 202.929245,558.501343 202.910156,579.500000 
M642.181519,248.748413 
	C639.970459,243.098343 635.532654,241.479294 629.851440,241.498566 
	C570.557983,241.699554 511.264160,241.795334 451.970734,242.008942 
	C445.826630,242.031082 439.607269,242.125870 433.557953,243.061066 
	C421.628479,244.905304 409.793854,247.362686 398.213806,249.511963 
	C398.213806,269.966125 398.213806,289.341431 398.213806,308.407959 
	C419.973511,311.163971 440.179779,305.047363 460.642242,300.575653 
	C477.522949,296.886688 494.394501,291.881134 511.491394,290.721741 
	C546.859680,288.323334 582.375427,288.099335 617.830200,286.971710 
	C619.763733,286.910217 621.694519,286.763458 623.790833,286.647308 
	C623.790833,285.236572 623.788635,284.416168 623.791199,283.595764 
	C623.820862,274.015930 623.950073,273.877441 633.611267,273.058380 
	C638.691101,272.627747 642.100769,269.521667 642.348389,264.521301 
	C642.594910,259.544037 642.384949,254.544174 642.181519,248.748413 
M767.966003,459.601929 
	C783.917908,503.857605 788.292603,549.344482 782.215210,595.882996 
	C778.620850,623.407471 772.536255,650.285461 759.941528,675.295898 
	C754.611572,685.880066 748.292358,695.563354 735.730286,698.730774 
	C740.953491,708.421997 752.022034,712.617249 764.407715,709.568054 
	C776.239441,706.655273 785.123962,699.115784 791.107788,689.096985 
	C797.891113,677.739624 804.648499,665.946289 808.721497,653.462952 
	C827.075500,597.209900 828.735474,540.023560 815.245789,482.474365 
	C810.116394,460.591766 801.928955,439.883087 787.966003,421.923950 
	C781.403442,413.483215 773.573486,406.659058 762.609619,404.478241 
	C751.221313,402.212982 740.073364,406.955902 735.334473,416.262421 
	C743.353088,418.710114 749.565308,423.778076 753.584106,430.866455 
	C758.734192,439.950134 763.041382,449.511627 767.966003,459.601929 
M289.038849,260.500031 
	C289.038849,276.566406 289.038849,292.632812 289.038849,308.686035 
	C321.772400,308.686035 353.801239,308.686035 385.797150,308.686035 
	C385.797150,284.793457 385.797150,261.239410 385.797150,237.642578 
	C353.416168,237.642578 321.386871,237.642578 289.036560,237.642578 
	C289.036560,245.217758 289.036560,252.358902 289.038849,260.500031 
z"/>
<path fill="#06292F" opacity="1.000000" stroke="none" 
	d="
M202.911621,579.000000 
	C202.929245,558.501343 202.946945,538.502625 202.960724,518.503967 
	C202.965683,511.302490 205.171829,509.063171 212.506500,508.965576 
	C220.005188,508.865814 227.504639,508.813019 235.003922,508.769196 
	C242.280472,508.726685 244.760269,511.262573 244.780304,518.737427 
	C244.795395,524.366821 244.783295,529.996338 244.783295,535.869507 
	C248.838547,535.869507 252.553238,535.869507 256.555878,535.869507 
	C256.555878,483.926208 256.555878,432.305206 256.555878,380.355225 
	C255.652649,379.972046 254.624084,379.556366 253.612366,379.103149 
	C246.226624,375.794434 245.534012,367.203400 251.791122,362.078613 
	C256.469666,358.246643 261.351532,356.923279 267.323700,357.130524 
	C278.784912,357.528229 290.269775,357.246246 302.092041,357.246246 
	C302.092041,353.874115 302.092041,350.800140 302.092041,347.192657 
	C287.252014,347.192657 272.359467,347.192657 256.762726,347.192657 
	C256.762726,340.428741 256.490845,334.151123 256.857147,327.910980 
	C257.106445,323.664276 262.084930,320.050629 266.954865,320.030090 
	C281.787048,319.967529 296.619507,319.968719 311.451874,319.968811 
	C343.116486,319.969025 374.781067,319.977051 406.445679,319.997833 
	C415.012909,320.003479 418.796356,323.863556 418.795288,332.506561 
	C418.794708,337.138977 418.795197,341.771362 418.795197,346.944305 
	C403.389587,346.944305 388.329285,346.944305 373.054993,346.944305 
	C373.054993,350.441254 373.054993,353.391052 373.054993,356.865967 
	C374.454681,356.960449 375.872070,357.135223 377.289978,357.139496 
	C389.789032,357.177032 402.288361,357.146545 414.787140,357.221069 
	C419.118378,357.246887 426.577362,363.899445 427.475067,368.330505 
	C428.457733,373.181213 425.642426,377.167358 419.026947,379.956299 
	C418.952606,381.554871 418.870911,383.311432 418.751465,385.879059 
	C422.170441,384.526031 425.044647,383.431061 427.886475,382.257721 
	C486.587616,358.021088 545.226074,357.970398 603.690430,382.963715 
	C628.328064,393.496216 649.763733,408.873260 669.185730,427.226044 
	C670.865356,428.813232 673.754883,429.863495 676.096130,429.888794 
	C693.592529,430.078400 711.095642,430.121063 728.589172,429.802948 
	C733.434631,429.714844 736.777283,431.377899 739.818054,434.848572 
	C748.337097,444.571930 753.677673,456.089447 757.691467,468.090851 
	C778.450806,530.161743 777.873352,592.156250 755.586609,653.718506 
	C752.626038,661.896362 747.610046,669.381287 743.123047,676.935852 
	C740.519653,681.319092 736.435974,683.195312 730.916260,683.037415 
	C717.284668,682.647339 703.634460,682.909485 689.505554,682.909485 
	C690.661743,696.823730 694.642334,709.344604 702.049011,720.620178 
	C703.058716,722.157349 706.388367,722.170593 709.168701,723.056641 
	C708.960938,722.761597 709.231812,723.006226 709.331177,723.307495 
	C713.226013,735.111328 713.223877,735.114319 725.555542,735.115601 
	C744.708374,735.117554 763.861206,735.116089 783.386597,735.116089 
	C783.386597,752.770813 783.386597,770.155090 783.386597,787.847778 
	C603.351257,787.847778 423.588501,787.847778 243.443878,787.847778 
	C243.443878,770.569519 243.443878,753.192078 243.443878,735.250732 
	C262.625549,735.250732 281.696747,735.250732 298.678375,735.250732 
	C302.180084,730.052551 304.409302,725.995544 307.338715,722.530457 
	C317.432251,710.591187 327.785065,698.871399 337.992737,687.028076 
	C339.042877,685.809631 339.782318,684.323486 341.236572,682.082031 
	C338.523346,682.082031 336.608521,681.910156 334.733917,682.112061 
	C327.024109,682.942383 320.527679,680.303101 315.314087,674.862244 
	C303.794281,662.840271 292.363159,650.727051 281.188324,638.386230 
	C278.933563,635.896118 276.933807,634.634033 273.656525,634.960266 
	C271.180511,635.206665 268.660187,635.078674 266.162018,635.017883 
	C259.650940,634.859436 256.540314,631.447021 256.596985,624.956360 
	C256.685455,614.820129 256.620392,604.682617 256.620392,594.232361 
	C252.713089,594.232361 249.000793,594.232361 244.774414,594.232361 
	C244.774414,599.938782 244.812927,605.557800 244.764435,611.176147 
	C244.706680,617.865662 242.067673,620.594788 235.352524,620.697144 
	C227.687912,620.813904 220.020523,620.785767 212.354507,620.761963 
	C205.455902,620.740601 202.974548,618.295410 202.948425,611.493774 
	C202.907486,600.829285 202.920181,590.164612 202.911621,579.000000 
M516.494812,390.779236 
	C515.329163,390.817871 514.163574,390.887665 512.997864,390.890625 
	C464.927368,391.012482 423.027618,407.244141 388.810760,440.934052 
	C341.161896,487.849152 322.385071,544.696960 337.757935,610.247437 
	C364.221771,723.090271 490.590942,781.162537 594.614380,729.392151 
	C670.576050,691.587646 709.861023,608.205872 689.940918,527.008789 
	C671.317139,451.095886 601.767212,391.720764 516.494812,390.779236 
z"/>
<path fill="#07282E" opacity="1.000000" stroke="none" 
	d="
M642.278320,249.151321 
	C642.384949,254.544174 642.594910,259.544037 642.348389,264.521301 
	C642.100769,269.521667 638.691101,272.627747 633.611267,273.058380 
	C623.950073,273.877441 623.820862,274.015930 623.791199,283.595764 
	C623.788635,284.416168 623.790833,285.236572 623.790833,286.647308 
	C621.694519,286.763458 619.763733,286.910217 617.830200,286.971710 
	C582.375427,288.099335 546.859680,288.323334 511.491394,290.721741 
	C494.394501,291.881134 477.522949,296.886688 460.642242,300.575653 
	C440.179779,305.047363 419.973511,311.163971 398.213806,308.407959 
	C398.213806,289.341431 398.213806,269.966125 398.213806,249.511963 
	C409.793854,247.362686 421.628479,244.905304 433.557953,243.061066 
	C439.607269,242.125870 445.826630,242.031082 451.970734,242.008942 
	C511.264160,241.795334 570.557983,241.699554 629.851440,241.498566 
	C635.532654,241.479294 639.970459,243.098343 642.278320,249.151321 
z"/>
<path fill="#07292F" opacity="1.000000" stroke="none" 
	d="
M767.838867,459.234589 
	C763.041382,449.511627 758.734192,439.950134 753.584106,430.866455 
	C749.565308,423.778076 743.353088,418.710114 735.334473,416.262421 
	C740.073364,406.955902 751.221313,402.212982 762.609619,404.478241 
	C773.573486,406.659058 781.403442,413.483215 787.966003,421.923950 
	C801.928955,439.883087 810.116394,460.591766 815.245789,482.474365 
	C828.735474,540.023560 827.075500,597.209900 808.721497,653.462952 
	C804.648499,665.946289 797.891113,677.739624 791.107788,689.096985 
	C785.123962,699.115784 776.239441,706.655273 764.407715,709.568054 
	C752.022034,712.617249 740.953491,708.421997 735.730286,698.730774 
	C748.292358,695.563354 754.611572,685.880066 759.941528,675.295898 
	C772.536255,650.285461 778.620850,623.407471 782.215210,595.882996 
	C788.292603,549.344482 783.917908,503.857605 767.838867,459.234589 
z"/>
<path fill="#072930" opacity="1.000000" stroke="none" 
	d="
M289.037720,260.000061 
	C289.036560,252.358902 289.036560,245.217758 289.036560,237.642578 
	C321.386871,237.642578 353.416168,237.642578 385.797150,237.642578 
	C385.797150,261.239410 385.797150,284.793457 385.797150,308.686035 
	C353.801239,308.686035 321.772400,308.686035 289.038849,308.686035 
	C289.038849,292.632812 289.038849,276.566406 289.037720,260.000061 
z"/>
<path fill="#E0EAEA" opacity="1.000000" stroke="none" 
	d="
M516.993286,390.796143 
	C601.767212,391.720764 671.317139,451.095886 689.940918,527.008789 
	C709.861023,608.205872 670.576050,691.587646 594.614380,729.392151 
	C490.590942,781.162537 364.221771,723.090271 337.757935,610.247437 
	C322.385071,544.696960 341.161896,487.849152 388.810760,440.934052 
	C423.027618,407.244141 464.927368,391.012482 512.997864,390.890625 
	C514.163574,390.887665 515.329163,390.817871 516.993286,390.796143 
M615.329407,694.829224 
	C623.134888,687.581055 631.747681,681.021545 638.613953,672.972229 
	C681.144348,623.114258 688.843140,552.650024 658.202759,494.788208 
	C618.293884,419.423798 523.089722,386.893005 443.838165,424.493317 
	C377.890839,455.781555 339.028564,529.558533 353.723389,599.549072 
	C378.480682,717.466492 516.779663,770.226135 615.329407,694.829224 
z"/>
<path fill="#0D2D34" opacity="1.000000" stroke="none" 
	d="
M615.045044,695.041199 
	C516.779663,770.226135 378.480682,717.466492 353.723389,599.549072 
	C339.028564,529.558533 377.890839,455.781555 443.838165,424.493317 
	C523.089722,386.893005 618.293884,419.423798 658.202759,494.788208 
	C688.843140,552.650024 681.144348,623.114258 638.613953,672.972229 
	C631.747681,681.021545 623.134888,687.581055 615.045044,695.041199 
M657.342346,515.204285 
	C654.725159,509.447845 652.466248,503.495239 649.437561,497.964081 
	C595.734924,399.887360 457.952515,389.691010 391.064545,479.266510 
	C357.456207,524.274353 349.999420,574.440247 371.775116,626.201294 
	C415.258942,729.562866 551.135620,755.819519 629.746277,668.037354 
	C669.315186,623.851990 677.247864,571.922852 657.342346,515.204285 
z"/>
<path fill="#DDE6E6" opacity="1.000000" stroke="none" 
	d="
M657.504150,515.555176 
	C677.247864,571.922852 669.315186,623.851990 629.746277,668.037354 
	C551.135620,755.819519 415.258942,729.562866 371.775116,626.201294 
	C349.999420,574.440247 357.456207,524.274353 391.064545,479.266510 
	C457.952515,389.691010 595.734924,399.887360 649.437561,497.964081 
	C652.466248,503.495239 654.725159,509.447845 657.504150,515.555176 
M647.645508,518.994446 
	C645.605164,514.442017 643.832825,509.746124 641.483948,505.358917 
	C610.681091,447.824554 549.962891,418.992126 485.119720,431.014099 
	C411.866547,444.595276 359.715912,518.145691 372.454102,591.183044 
	C381.860840,645.118835 413.423096,682.430054 464.236389,701.096375 
	C515.693176,719.999268 564.469971,711.006348 606.857910,676.167297 
	C653.697876,637.669189 668.789124,577.101501 647.645508,518.994446 
z"/>
<path fill="#082930" opacity="1.000000" stroke="none" 
	d="
M647.778564,519.362793 
	C668.789124,577.101501 653.697876,637.669189 606.857910,676.167297 
	C564.469971,711.006348 515.693176,719.999268 464.236389,701.096375 
	C413.423096,682.430054 381.860840,645.118835 372.454102,591.183044 
	C359.715912,518.145691 411.866547,444.595276 485.119720,431.014099 
	C549.962891,418.992126 610.681091,447.824554 641.483948,505.358917 
	C643.832825,509.746124 645.605164,514.442017 647.778564,519.362793 
M486.022308,560.093628 
	C486.099915,559.383972 486.177551,558.674255 486.255157,557.964600 
	C483.536652,557.677490 480.662537,556.583313 478.961945,560.103455 
	C477.735565,562.642029 476.204834,565.033447 474.670166,567.736511 
	C467.379089,557.401672 467.379089,557.401672 462.434265,558.494141 
	C466.106537,566.735962 474.014435,573.414001 470.977234,584.119690 
	C473.416260,583.984070 474.987244,583.896729 475.376465,583.875061 
	C477.381958,578.266113 479.110291,573.432190 481.126434,569.303467 
	C480.652374,571.664368 480.178284,574.025208 479.862610,575.597290 
	C482.374939,575.404846 485.155365,575.191833 487.788666,575.776978 
	C487.575897,581.180176 490.827301,583.527893 495.556030,584.522766 
	C500.971649,585.662292 506.885620,583.660095 508.955933,580.033630 
	C511.444916,575.673767 510.161682,571.182800 505.509369,569.309692 
	C502.766663,568.205444 499.677734,567.986938 496.858154,567.033936 
	C495.862213,566.697327 494.437805,565.212769 494.573517,564.519409 
	C494.768829,563.521545 496.394806,561.916443 497.087158,562.065979 
	C499.357147,562.556274 501.443054,563.835388 503.675171,564.587341 
	C505.096039,565.066040 506.650543,565.147949 508.145142,565.407715 
	C507.996429,563.930969 508.316254,562.169556 507.620789,561.025024 
	C503.892944,554.890015 493.315155,555.608948 487.765198,562.036316 
	C487.133087,561.601562 486.500977,561.166870 486.022308,560.093628 
M530.903687,563.758972 
	C530.078308,566.579224 529.113403,569.367432 528.455872,572.226257 
	C526.940369,578.815369 528.688965,580.985413 535.507629,581.727783 
	C536.045715,582.409973 536.570740,583.672913 537.123901,583.685303 
	C543.359497,583.825806 549.599426,583.774231 556.329529,583.774231 
	C555.978333,581.414917 555.741394,579.823303 556.374939,578.115479 
	C557.251709,578.076904 558.128540,578.038330 559.169739,578.836243 
	C559.169739,580.409973 559.169739,581.983704 559.169739,583.884705 
	C561.432251,583.769226 563.003967,583.689026 565.221985,583.575867 
	C565.221985,579.859924 565.221985,576.434631 565.781494,573.012085 
	C566.154541,573.009399 566.527588,573.006714 567.246277,573.677429 
	C567.916077,575.901550 568.288574,578.283264 569.356201,580.296448 
	C570.115723,581.728638 571.837036,583.593201 573.082092,583.558960 
	C574.313232,583.524963 576.012390,581.551819 576.579346,580.073792 
	C577.987122,576.403992 578.866333,572.531494 579.957825,568.740356 
	C580.244629,568.830627 580.531433,568.920898 580.818237,569.011169 
	C580.818237,573.773560 580.818237,578.536011 580.818237,583.722229 
	C582.999634,583.553223 584.879517,583.407593 586.511719,583.281189 
	C586.511719,574.281799 586.511719,565.852661 586.511719,557.157776 
	C583.587891,557.157776 580.995972,557.157776 578.290588,557.157776 
	C576.578430,562.848816 574.890503,568.459229 573.202576,574.069580 
	C571.851013,572.077881 571.432312,570.304138 570.912354,568.560608 
	C570.343506,566.652832 569.714722,564.761108 569.053223,562.883118 
	C566.802612,556.493347 566.393555,556.299683 559.043091,558.133545 
	C559.043091,559.711121 559.043091,561.356567 558.300293,562.988464 
	C557.481689,562.549255 556.663086,562.110107 555.707703,560.912842 
	C555.120300,559.752991 554.347229,557.526428 553.973083,557.591553 
	C547.152832,558.778748 538.913147,553.681946 533.657166,561.962708 
	C533.604065,562.046387 533.338867,561.995361 532.968872,560.760681 
	C532.282104,559.658691 531.642151,557.637390 530.901306,557.599731 
	C524.772400,557.287781 518.622375,557.247437 512.485535,557.398560 
	C511.640533,557.419373 510.058197,559.085815 510.179260,559.737244 
	C510.388702,560.863770 511.492767,562.352478 512.534485,562.673340 
	C514.138367,563.167358 516.006592,562.803284 517.559753,562.803284 
	C518.152771,570.139221 518.704163,576.960999 519.278748,584.069092 
	C521.340210,583.954529 522.922302,583.866577 525.024963,583.749695 
	C525.024963,576.591736 525.024963,569.736511 525.024963,562.643372 
	C527.385742,562.786072 529.192810,562.895264 530.903687,563.758972 
M524.121155,600.200134 
	C524.765381,601.404785 525.409607,602.609436 526.161133,604.014648 
	C528.572021,604.014648 530.806641,604.014648 533.605835,604.014648 
	C533.605835,611.209534 533.605835,618.060486 533.605835,624.995728 
	C535.789062,624.995728 537.393982,624.995728 539.200562,624.995728 
	C539.404236,621.867737 539.595703,618.926758 540.549805,615.976685 
	C543.030273,614.317871 545.510803,612.659119 548.155334,611.824890 
	C548.599792,621.135071 554.669800,626.642883 563.456299,625.708740 
	C571.203613,624.885010 575.892456,618.302917 574.724792,609.853821 
	C572.978943,597.221497 559.600647,594.711670 552.045349,600.557983 
	C551.395691,596.419556 549.100159,598.804199 546.518494,598.956238 
	C538.704529,599.577454 530.589172,596.414795 522.612122,599.893433 
	C520.851318,599.456726 519.090515,599.020081 517.867798,598.716858 
	C516.718384,601.088745 515.918762,602.738708 514.140625,604.957397 
	C513.103455,603.056335 512.066284,601.155273 510.706757,598.663330 
	C509.878174,598.663330 508.173340,598.663330 505.812714,598.663330 
	C505.812714,601.538757 505.812714,604.264709 505.098145,606.768005 
	C504.731049,605.777710 504.160919,604.812988 504.032135,603.792603 
	C503.476379,599.389832 501.159882,598.235474 496.291992,599.871094 
	C494.139191,599.281189 491.986359,598.691284 489.622345,598.043457 
	C489.329437,600.411926 489.169403,601.706055 488.337097,602.882751 
	C487.184998,601.725952 486.066833,600.532776 484.873169,599.420593 
	C482.819946,597.507446 482.069214,598.758423 480.998932,600.459106 
	C472.287476,595.719482 465.840088,597.167969 460.426727,604.522705 
	C459.949402,603.831421 459.472046,603.140198 458.994720,602.448914 
	C458.484528,602.674194 457.974335,602.899414 457.464142,603.124695 
	C458.265869,605.084473 459.067596,607.044250 459.953369,609.885010 
	C459.937897,610.380127 459.905701,610.875305 459.909363,611.370300 
	C459.978943,620.777588 464.643433,625.879089 472.993866,625.833374 
	C479.708252,625.796631 486.674591,621.743347 485.878326,610.855225 
	C485.735046,608.896118 485.265442,606.960999 485.757050,605.003967 
	C486.837891,605.002686 487.918701,605.001343 489.187897,605.920654 
	C489.187897,612.194763 489.187897,618.468933 489.187897,624.997131 
	C491.428162,624.997131 493.166473,624.997131 495.445221,624.997131 
	C495.445221,619.687805 495.445221,614.539185 495.445221,608.022644 
	C498.707214,613.347168 501.424591,617.297180 503.622375,621.517822 
	C505.507477,625.138000 507.940399,626.236389 511.970306,624.558960 
	C511.970306,619.085083 511.949463,613.473450 511.981354,607.862061 
	C511.992889,605.832031 511.892120,603.580872 516.196167,604.603760 
	C516.489380,611.317078 516.782532,618.030457 517.079895,624.840881 
	C519.017578,624.840881 520.740051,624.840881 523.086792,624.840881 
	C523.086792,616.524658 523.086792,608.478760 524.121155,600.200134 
M429.116638,514.790222 
	C427.259705,514.332520 425.402771,513.874817 423.511932,513.408752 
	C422.108978,519.048401 420.903656,523.893616 419.325470,530.237610 
	C417.751984,524.793213 416.843872,520.746521 415.346527,516.931091 
	C414.775848,515.476929 412.992218,513.992554 411.489471,513.620544 
	C410.720367,513.430176 408.801331,515.482056 408.355621,516.834717 
	C406.971558,521.035461 406.043945,525.386597 404.671753,530.718750 
	C403.429749,525.692871 402.186768,521.871582 401.596741,517.952087 
	C400.943390,513.611816 398.971039,512.259277 394.385895,513.937988 
	C396.698425,522.588928 398.995544,531.182373 401.302246,539.811646 
	C403.624146,539.811646 405.565338,539.811646 407.659851,539.811646 
	C408.929474,534.609741 410.156250,529.583313 411.383026,524.556885 
	C411.744263,524.543701 412.105530,524.530518 412.466797,524.517334 
	C413.766449,529.538696 415.066101,534.560120 416.405243,539.734009 
	C418.540283,539.734009 420.476715,539.734009 422.528961,539.734009 
	C424.703674,531.593445 426.842438,523.587341 429.116638,514.790222 
M590.443542,539.938904 
	C590.991333,538.765869 591.939880,537.616638 592.011414,536.415161 
	C592.222595,532.868286 592.086853,529.300781 592.086853,525.741272 
	C592.448669,525.666077 592.810486,525.590881 593.172241,525.515686 
	C594.595886,530.321350 596.019592,535.127075 597.504028,540.138062 
	C599.501526,540.044312 601.250183,539.962280 602.837585,539.887756 
	C604.378052,534.439392 605.792847,529.435669 607.207581,524.432007 
	C607.541748,524.499329 607.875977,524.566589 608.210144,524.633911 
	C608.210144,529.576050 608.210144,534.518250 608.210144,539.674377 
	C610.123047,539.674377 611.694580,539.674377 613.644653,539.674377 
	C613.644653,531.050659 613.644653,522.655396 613.644653,514.272827 
	C605.942383,513.291809 605.938049,513.290405 603.648132,520.400940 
	C602.599060,523.658203 601.570679,526.922119 600.191162,531.256775 
	C598.656433,526.774170 596.999268,523.337280 596.349060,519.719421 
	C595.265747,513.692139 591.710449,512.948059 586.205750,514.381165 
	C586.205750,522.024780 586.106689,529.816772 586.351746,537.598022 
	C586.377563,538.418396 588.428040,539.174927 590.443542,539.938904 
M439.257690,622.321533 
	C440.707092,623.305237 442.134918,624.981445 443.613495,625.027527 
	C444.587189,625.057922 446.076294,622.888916 446.563110,621.444763 
	C447.884613,617.524048 448.795319,613.464905 449.868896,609.460632 
	C450.190063,609.539856 450.511230,609.619080 450.832397,609.698303 
	C450.832397,614.669128 450.832397,619.639893 450.832397,624.631836 
	C452.766083,624.631836 454.455750,624.631836 455.969971,624.631836 
	C455.969971,615.797119 455.969971,607.406006 455.969971,599.061951 
	C448.087921,598.516602 448.094910,598.518677 446.084290,605.375488 
	C445.115082,608.680786 444.113861,611.976624 442.730103,616.604797 
	C441.139771,611.406555 440.072540,607.737732 438.893860,604.105103 
	C436.797516,597.644226 436.348175,597.425903 429.186768,598.913147 
	C429.186768,607.498718 429.186768,616.099792 429.186768,624.823853 
	C431.111572,624.823853 432.796600,624.823853 434.909912,624.823853 
	C434.909912,619.927856 434.909912,615.404297 434.909912,610.880737 
	C435.181152,610.846619 435.452393,610.812500 435.723633,610.778320 
	C436.825165,614.367493 437.926697,617.956726 439.257690,622.321533 
M578.505615,609.541870 
	C578.505615,614.616333 578.505615,619.690857 578.505615,624.775024 
	C580.858521,624.775024 582.464966,624.775024 584.356506,624.775024 
	C584.444763,623.076294 584.507874,621.611206 584.600525,620.148132 
	C584.692139,618.699402 584.813782,617.252625 584.916809,615.877502 
	C593.639221,614.642395 593.639221,614.642395 595.795471,624.690063 
	C597.425232,624.690063 599.091553,624.690063 600.724426,624.690063 
	C601.192688,618.534546 598.409912,612.991638 600.619080,606.897095 
	C602.086487,602.848694 598.867615,599.384033 594.467346,598.972412 
	C589.270203,598.486267 583.992798,598.858276 578.466797,598.858276 
	C578.466797,602.323669 578.466797,605.445862 578.505615,609.541870 
M499.619781,529.472229 
	C499.619781,532.898499 499.619781,536.324707 499.619781,540.095337 
	C501.760803,539.998779 503.486053,539.921021 505.497894,539.830322 
	C505.497894,538.062805 505.497894,536.754822 505.497894,535.446838 
	C505.497894,534.002014 505.497894,532.557129 505.497894,531.227905 
	C514.037109,529.189331 514.271423,529.383545 516.399292,539.834106 
	C518.121277,539.834106 519.855347,539.834106 521.692444,539.834106 
	C521.539673,538.539307 521.228210,537.541992 521.343323,536.596680 
	C521.898193,532.039246 519.171875,527.748901 521.601135,522.757690 
	C523.580444,518.690979 519.631470,514.118286 514.869629,513.791565 
	C509.968811,513.455200 505.027008,513.716797 499.643402,513.716797 
	C499.643402,518.922302 499.643402,523.705322 499.619781,529.472229 
M457.057922,565.670959 
	C458.302765,565.670959 459.547607,565.670959 460.878601,565.670959 
	C459.421387,558.010620 453.137146,554.718872 445.617981,558.082092 
	C443.273743,559.130615 441.187378,562.412842 440.489166,565.068481 
	C439.599762,568.451416 441.923523,571.096802 445.405823,572.088684 
	C447.636475,572.724121 450.054199,572.784363 452.204865,573.590820 
	C453.680084,574.144043 454.840454,575.536804 456.141541,576.554321 
	C454.579529,577.555237 453.062225,579.261169 451.443268,579.363708 
	C449.742615,579.471558 447.914490,578.105713 446.197205,577.270630 
	C444.299500,576.347778 442.464325,575.296204 439.890381,573.920410 
	C440.466736,583.136841 449.792389,587.577026 456.851471,583.048401 
	C459.206543,581.537537 461.225586,578.067078 461.597839,575.254089 
	C462.095490,571.494141 458.799469,569.578979 455.241211,568.788818 
	C452.971649,568.284851 450.637939,567.952881 448.469849,567.166565 
	C447.599091,566.850769 446.399384,565.321533 446.579620,564.703308 
	C446.883789,563.659912 448.441589,562.008667 448.993073,562.177551 
	C451.527222,562.953552 453.895447,564.271484 457.057922,565.670959 
M576.501892,515.955688 
	C576.445618,520.108337 576.337097,524.261169 576.349121,528.413635 
	C576.359375,531.976868 576.123291,535.413391 571.359802,535.303162 
	C566.702393,535.195435 565.796570,532.065186 565.925659,528.081055 
	C566.074951,523.472229 565.960388,518.854858 565.960388,514.044678 
	C563.833923,514.044678 562.100647,514.044678 560.142090,514.044678 
	C560.142090,519.990295 559.877808,525.632263 560.213745,531.238159 
	C560.574890,537.262817 564.312195,540.339539 570.912415,540.778992 
	C576.797668,541.170898 581.422058,538.584351 581.817749,533.683533 
	C582.345032,527.153015 581.947998,520.547913 581.947998,513.044189 
	C579.679321,513.895203 578.149231,514.469116 576.501892,515.955688 
M489.333191,524.122803 
	C487.039978,524.122803 484.746796,524.122803 482.201477,524.122803 
	C482.201477,522.204224 482.201477,520.814392 482.201477,518.876709 
	C486.620544,518.876709 490.850128,518.876709 495.079895,518.876709 
	C495.079895,516.910278 495.079895,515.492798 495.079895,514.085754 
	C488.552795,514.085754 482.318939,514.085754 475.955811,514.085754 
	C475.955811,522.818359 475.955811,531.218628 475.955811,539.907227 
	C476.976929,539.975403 477.766541,540.071838 478.556427,540.073792 
	C484.008514,540.087158 489.460693,540.080811 495.181030,540.080811 
	C495.181030,538.092041 495.181030,536.695618 495.181030,534.804443 
	C490.681519,534.804443 486.440369,534.804443 482.113617,534.804443 
	C482.113617,532.706909 482.113617,531.104919 482.113617,528.911987 
	C486.375153,528.911987 490.444672,528.911987 494.289673,528.911987 
	C495.845276,524.111633 493.220490,523.943359 489.333191,524.122803 
M633.816589,530.948486 
	C638.747314,528.757935 640.771240,525.223145 639.830811,520.444519 
	C638.931763,515.876221 635.795105,513.522583 630.386902,513.454895 
	C626.468811,513.405823 622.549622,513.445312 618.490540,513.445312 
	C618.490540,522.718750 618.490540,531.131592 618.490540,539.606995 
	C620.459717,539.606995 622.179504,539.606995 624.264648,539.606995 
	C624.264648,536.688965 624.264648,534.101318 624.264648,531.067932 
	C627.407349,531.067932 630.186951,531.067932 633.816589,530.948486 
M544.654541,531.266052 
	C546.805969,531.094910 549.039795,531.233582 551.091614,530.687866 
	C555.298645,529.568909 557.432007,526.628906 557.323303,522.211975 
	C557.222168,518.101257 555.430908,514.809387 551.282410,514.167175 
	C546.284912,513.393494 541.154846,513.476318 536.078857,513.188171 
	C536.078857,522.525696 536.078857,531.093628 536.078857,539.942017 
	C538.042114,539.834839 539.629272,539.748169 540.429016,539.704468 
	C541.691162,536.503540 542.720642,533.892639 544.654541,531.266052 
M445.728058,534.486267 
	C448.318695,540.453857 448.318695,540.453857 453.516449,539.090027 
	C450.673706,531.244202 447.974396,523.382996 444.866913,515.686584 
	C444.429565,514.603394 442.011810,513.865723 440.482971,513.815735 
	C439.173218,513.772766 437.020844,514.623596 436.619110,515.629578 
	C433.489563,523.465881 430.693512,531.435303 427.666351,539.713806 
	C431.377045,539.928101 434.729187,541.156006 435.419617,536.185242 
	C435.520203,535.461060 437.361176,534.645203 438.489990,534.469116 
	C440.614319,534.137878 442.806641,534.242188 445.728058,534.486267 
M460.537842,513.929199 
	C457.432587,513.929199 454.327332,513.929199 450.916534,513.929199 
	C451.085510,516.094849 451.195038,517.498901 451.307770,518.944031 
	C454.107544,519.067078 456.541779,519.174072 459.519165,519.304993 
	C459.519165,526.428406 459.519165,533.153625 459.519165,539.891785 
	C461.718872,539.891785 463.342529,539.891785 465.518921,539.891785 
	C465.518921,532.937012 465.518921,526.189941 465.518921,519.025391 
	C468.323364,519.025391 470.588470,519.025391 473.262299,519.025391 
	C473.159668,517.050049 473.080811,515.532959 472.997437,513.928528 
	C468.824799,513.928528 465.172363,513.928528 460.537842,513.929199 
z"/>
<path fill="#D1DBDB" opacity="1.000000" stroke="none" 
	d="
M559.043091,563.002075 
	C559.043091,561.356567 559.043091,559.711121 559.043091,558.133545 
	C566.393555,556.299683 566.802612,556.493347 569.053223,562.883118 
	C569.714722,564.761108 570.343506,566.652832 570.912354,568.560608 
	C571.432312,570.304138 571.851013,572.077881 573.202576,574.069580 
	C574.890503,568.459229 576.578430,562.848816 578.290588,557.157776 
	C580.995972,557.157776 583.587891,557.157776 586.511719,557.157776 
	C586.511719,565.852661 586.511719,574.281799 586.511719,583.281189 
	C584.879517,583.407593 582.999634,583.553223 580.818237,583.722229 
	C580.818237,578.536011 580.818237,573.773560 580.818237,569.011169 
	C580.531433,568.920898 580.244629,568.830627 579.957825,568.740356 
	C578.866333,572.531494 577.987122,576.403992 576.579346,580.073792 
	C576.012390,581.551819 574.313232,583.524963 573.082092,583.558960 
	C571.837036,583.593201 570.115723,581.728638 569.356201,580.296448 
	C568.288574,578.283264 567.916077,575.901550 567.080078,572.992615 
	C566.515198,571.131897 566.116394,569.955994 565.717590,568.780029 
	C565.477905,568.827759 565.238220,568.875488 564.998535,568.923218 
	C565.072998,570.285278 565.147461,571.647278 565.221924,573.009338 
	C565.221985,576.434631 565.221985,579.859924 565.221985,583.575867 
	C563.003967,583.689026 561.432251,583.769226 559.169739,583.884705 
	C559.169739,581.983704 559.169739,580.409973 559.190430,578.010742 
	C559.158142,575.793152 559.105225,574.401062 559.130493,572.754272 
	C559.158569,572.329102 559.108521,572.158691 559.163818,571.548828 
	C559.193787,568.406921 559.118408,565.704529 559.043091,563.002075 
z"/>
<path fill="#D1DBDB" opacity="1.000000" stroke="none" 
	d="
M429.048950,515.185791 
	C426.842438,523.587341 424.703674,531.593445 422.528961,539.734009 
	C420.476715,539.734009 418.540283,539.734009 416.405243,539.734009 
	C415.066101,534.560120 413.766449,529.538696 412.466797,524.517334 
	C412.105530,524.530518 411.744263,524.543701 411.383026,524.556885 
	C410.156250,529.583313 408.929474,534.609741 407.659851,539.811646 
	C405.565338,539.811646 403.624146,539.811646 401.302246,539.811646 
	C398.995544,531.182373 396.698425,522.588928 394.385895,513.937988 
	C398.971039,512.259277 400.943390,513.611816 401.596741,517.952087 
	C402.186768,521.871582 403.429749,525.692871 404.671753,530.718750 
	C406.043945,525.386597 406.971558,521.035461 408.355621,516.834717 
	C408.801331,515.482056 410.720367,513.430176 411.489471,513.620544 
	C412.992218,513.992554 414.775848,515.476929 415.346527,516.931091 
	C416.843872,520.746521 417.751984,524.793213 419.325470,530.237610 
	C420.903656,523.893616 422.108978,519.048401 423.511932,513.408752 
	C425.402771,513.874817 427.259705,514.332520 429.048950,515.185791 
z"/>
<path fill="#D3DCDC" opacity="1.000000" stroke="none" 
	d="
M589.991333,539.949951 
	C588.428040,539.174927 586.377563,538.418396 586.351746,537.598022 
	C586.106689,529.816772 586.205750,522.024780 586.205750,514.381165 
	C591.710449,512.948059 595.265747,513.692139 596.349060,519.719421 
	C596.999268,523.337280 598.656433,526.774170 600.191162,531.256775 
	C601.570679,526.922119 602.599060,523.658203 603.648132,520.400940 
	C605.938049,513.290405 605.942383,513.291809 613.644653,514.272827 
	C613.644653,522.655396 613.644653,531.050659 613.644653,539.674377 
	C611.694580,539.674377 610.123047,539.674377 608.210144,539.674377 
	C608.210144,534.518250 608.210144,529.576050 608.210144,524.633911 
	C607.875977,524.566589 607.541748,524.499329 607.207581,524.432007 
	C605.792847,529.435669 604.378052,534.439392 602.837585,539.887756 
	C601.250183,539.962280 599.501526,540.044312 597.504028,540.138062 
	C596.019592,535.127075 594.595886,530.321350 593.172241,525.515686 
	C592.810486,525.590881 592.448669,525.666077 592.086853,525.741272 
	C592.086853,529.300781 592.222595,532.868286 592.011414,536.415161 
	C591.939880,537.616638 590.991333,538.765869 589.991333,539.949951 
z"/>
<path fill="#DAE2E2" opacity="1.000000" stroke="none" 
	d="
M439.142944,621.933716 
	C437.926697,617.956726 436.825165,614.367493 435.723633,610.778320 
	C435.452393,610.812500 435.181152,610.846619 434.909912,610.880737 
	C434.909912,615.404297 434.909912,619.927856 434.909912,624.823853 
	C432.796600,624.823853 431.111572,624.823853 429.186768,624.823853 
	C429.186768,616.099792 429.186768,607.498718 429.186768,598.913147 
	C436.348175,597.425903 436.797516,597.644226 438.893860,604.105103 
	C440.072540,607.737732 441.139771,611.406555 442.730103,616.604797 
	C444.113861,611.976624 445.115082,608.680786 446.084290,605.375488 
	C448.094910,598.518677 448.087921,598.516602 455.969971,599.061951 
	C455.969971,607.406006 455.969971,615.797119 455.969971,624.631836 
	C454.455750,624.631836 452.766083,624.631836 450.832397,624.631836 
	C450.832397,619.639893 450.832397,614.669128 450.832397,609.698303 
	C450.511230,609.619080 450.190063,609.539856 449.868896,609.460632 
	C448.795319,613.464905 447.884613,617.524048 446.563110,621.444763 
	C446.076294,622.888916 444.587189,625.057922 443.613495,625.027527 
	C442.134918,624.981445 440.707092,623.305237 439.142944,621.933716 
z"/>
<path fill="#D5DFDE" opacity="1.000000" stroke="none" 
	d="
M505.812744,606.990662 
	C505.812714,604.264709 505.812714,601.538757 505.812714,598.663330 
	C508.173340,598.663330 509.878174,598.663330 510.706757,598.663330 
	C512.066284,601.155273 513.103455,603.056335 514.611267,604.677124 
	C515.081909,604.396790 515.118347,604.476929 515.118347,604.476929 
	C511.892120,603.580872 511.992889,605.832031 511.981354,607.862061 
	C511.949463,613.473450 511.970306,619.085083 511.970306,624.558960 
	C507.940399,626.236389 505.507477,625.138000 503.622375,621.517822 
	C501.424591,617.297180 498.707214,613.347168 495.445221,608.022644 
	C495.445221,614.539185 495.445221,619.687805 495.445221,624.997131 
	C493.166473,624.997131 491.428162,624.997131 489.187897,624.997131 
	C489.187897,618.468933 489.187897,612.194763 489.197876,605.132690 
	C489.141724,603.896606 489.075562,603.448364 489.009369,603.000183 
	C489.169403,601.706055 489.329437,600.411926 489.622345,598.043457 
	C491.986359,598.691284 494.139191,599.281189 496.637115,600.426636 
	C498.743225,603.736084 500.504211,606.490051 502.378510,609.560913 
	C503.049774,610.573181 503.607788,611.268494 504.257385,612.291626 
	C504.803314,612.932129 505.257690,613.244690 505.712067,613.557190 
	C505.746826,612.380554 505.781586,611.203979 505.887756,609.772461 
	C505.912201,609.347351 505.865295,609.177185 505.907532,608.674683 
	C505.935333,607.891846 505.874054,607.441223 505.812744,606.990662 
z"/>
<path fill="#D5DFDE" opacity="1.000000" stroke="none" 
	d="
M578.486206,609.054993 
	C578.466797,605.445862 578.466797,602.323669 578.466797,598.858276 
	C583.992798,598.858276 589.270203,598.486267 594.467346,598.972412 
	C598.867615,599.384033 602.086487,602.848694 600.619080,606.897095 
	C598.409912,612.991638 601.192688,618.534546 600.724426,624.690063 
	C599.091553,624.690063 597.425232,624.690063 595.795471,624.690063 
	C593.639221,614.642395 593.639221,614.642395 584.916809,615.877502 
	C584.813782,617.252625 584.692139,618.699402 584.600525,620.148132 
	C584.507874,621.611206 584.444763,623.076294 584.356506,624.775024 
	C582.464966,624.775024 580.858521,624.775024 578.505615,624.775024 
	C578.505615,619.690857 578.505615,614.616333 578.486206,609.054993 
M586.017395,610.828674 
	C587.844299,610.839661 589.821594,611.288696 591.452393,610.728638 
	C592.858643,610.245605 594.742798,608.663086 594.810120,607.475647 
	C594.877075,606.294800 593.137878,604.261353 591.843018,603.919800 
	C589.602295,603.328735 587.093018,603.755859 584.137817,603.755859 
	C584.564575,606.523132 584.882019,608.581787 586.017395,610.828674 
z"/>
<path fill="#DAE2E2" opacity="1.000000" stroke="none" 
	d="
M499.631592,528.980347 
	C499.643402,523.705322 499.643402,518.922302 499.643402,513.716797 
	C505.027008,513.716797 509.968811,513.455200 514.869629,513.791565 
	C519.631470,514.118286 523.580444,518.690979 521.601135,522.757690 
	C519.171875,527.748901 521.898193,532.039246 521.343323,536.596680 
	C521.228210,537.541992 521.539673,538.539307 521.692444,539.834106 
	C519.855347,539.834106 518.121277,539.834106 516.399292,539.834106 
	C514.271423,529.383545 514.037109,529.189331 505.497894,531.227905 
	C505.497894,532.557129 505.497894,534.002014 505.497894,535.446838 
	C505.497894,536.754822 505.497894,538.062805 505.497894,539.830322 
	C503.486053,539.921021 501.760803,539.998779 499.619781,540.095337 
	C499.619781,536.324707 499.619781,532.898499 499.631592,528.980347 
M514.128662,519.196472 
	C511.387970,518.929749 508.647247,518.663025 505.715454,518.377686 
	C505.715454,521.277588 505.715454,523.480103 505.715454,525.915710 
	C507.742218,525.915710 509.400909,525.976807 511.053711,525.904175 
	C515.995178,525.687134 516.733704,524.420593 514.128662,519.196472 
z"/>
<path fill="#D3DCDC" opacity="1.000000" stroke="none" 
	d="
M484.946472,605.014771 
	C485.265442,606.960999 485.735046,608.896118 485.878326,610.855225 
	C486.674591,621.743347 479.708252,625.796631 472.993866,625.833374 
	C464.643433,625.879089 459.978943,620.777588 459.909363,611.370300 
	C459.905701,610.875305 459.937897,610.380127 460.049866,609.124268 
	C460.394073,607.234680 460.641754,606.105774 460.889465,604.976868 
	C465.840088,597.167969 472.287476,595.719482 481.494080,600.879639 
	C482.975006,602.538452 483.960754,603.776611 484.946472,605.014771 
M480.218323,612.417297 
	C480.447174,608.616028 479.394867,605.263367 475.532715,604.060730 
	C473.549225,603.443054 470.514099,603.302002 469.074005,604.406067 
	C465.359894,607.253540 465.592957,611.601135 466.687958,615.774658 
	C467.584930,619.193604 470.170502,620.531372 473.448303,620.413269 
	C477.930328,620.251770 479.726715,617.335388 480.218323,612.417297 
z"/>
<path fill="#D3DCDC" opacity="1.000000" stroke="none" 
	d="
M552.128906,601.367249 
	C559.600647,594.711670 572.978943,597.221497 574.724792,609.853821 
	C575.892456,618.302917 571.203613,624.885010 563.456299,625.708740 
	C554.669800,626.642883 548.599792,621.135071 548.182617,611.095703 
	C548.268250,609.483582 548.326599,608.600708 548.600769,607.438171 
	C549.668213,605.480103 550.519836,603.801758 551.565247,602.079590 
	C552.010559,601.883789 552.133850,601.660950 552.128906,601.367249 
M554.800781,615.427917 
	C557.307617,620.097839 560.496948,621.765869 564.159546,620.322632 
	C567.738037,618.912537 569.724243,614.071350 568.673706,609.335632 
	C567.727661,605.071289 564.825317,603.311401 560.725830,603.444031 
	C555.764221,603.604614 553.627686,607.606750 554.800781,615.427917 
z"/>
<path fill="#D3DCDC" opacity="1.000000" stroke="none" 
	d="
M555.504456,578.231689 
	C555.741394,579.823303 555.978333,581.414917 556.329529,583.774231 
	C549.599426,583.774231 543.359497,583.825806 537.123901,583.685303 
	C536.570740,583.672913 536.045715,582.409973 535.526855,580.966614 
	C535.518005,575.259521 535.620239,570.306458 535.352722,565.373535 
	C535.298462,564.372925 533.848633,563.448059 533.090210,562.419373 
	C533.192688,562.128540 533.204163,562.014099 533.172668,562.007202 
	C533.338867,561.995361 533.604065,562.046387 533.657166,561.962708 
	C538.913147,553.681946 547.152832,558.778748 553.973083,557.591553 
	C554.347229,557.526428 555.120300,559.752991 555.365967,561.490601 
	C550.591003,562.265564 546.157776,562.462708 541.327209,562.677490 
	C541.436829,564.655151 541.522583,566.201660 541.631165,568.161255 
	C546.203552,568.161255 550.296570,568.161255 554.464233,568.161255 
	C554.464233,569.846252 554.464233,571.086609 554.464233,572.908020 
	C549.961792,572.908020 545.720825,572.908020 541.449707,572.908020 
	C541.449707,575.076904 541.449707,576.659851 541.449707,578.866333 
	C546.311279,578.646790 550.907898,578.439270 555.504456,578.231689 
z"/>
<path fill="#D0D7D8" opacity="1.000000" stroke="none" 
	d="
M488.543365,562.193359 
	C493.315155,555.608948 503.892944,554.890015 507.620789,561.025024 
	C508.316254,562.169556 507.996429,563.930969 508.145142,565.407715 
	C506.650543,565.147949 505.096039,565.066040 503.675171,564.587341 
	C501.443054,563.835388 499.357147,562.556274 497.087158,562.065979 
	C496.394806,561.916443 494.768829,563.521545 494.573517,564.519409 
	C494.437805,565.212769 495.862213,566.697327 496.858154,567.033936 
	C499.677734,567.986938 502.766663,568.205444 505.509369,569.309692 
	C510.161682,571.182800 511.444916,575.673767 508.955933,580.033630 
	C506.885620,583.660095 500.971649,585.662292 495.556030,584.522766 
	C490.827301,583.527893 487.575897,581.180176 488.269318,575.321533 
	C490.595856,575.877625 492.350281,577.153015 494.311157,577.832703 
	C496.671326,578.650696 499.200104,579.255737 501.670929,579.314026 
	C502.408813,579.331482 503.197266,577.205200 503.962585,576.061096 
	C502.012299,575.065430 500.090393,574.006836 498.096832,573.107117 
	C497.367676,572.778137 496.453369,572.887695 495.648895,572.692566 
	C489.915009,571.301575 487.784698,568.138000 488.543365,562.193359 
z"/>
<path fill="#D1DBDB" opacity="1.000000" stroke="none" 
	d="
M456.690552,565.532959 
	C453.895447,564.271484 451.527222,562.953552 448.993073,562.177551 
	C448.441589,562.008667 446.883789,563.659912 446.579620,564.703308 
	C446.399384,565.321533 447.599091,566.850769 448.469849,567.166565 
	C450.637939,567.952881 452.971649,568.284851 455.241211,568.788818 
	C458.799469,569.578979 462.095490,571.494141 461.597839,575.254089 
	C461.225586,578.067078 459.206543,581.537537 456.851471,583.048401 
	C449.792389,587.577026 440.466736,583.136841 439.890381,573.920410 
	C442.464325,575.296204 444.299500,576.347778 446.197205,577.270630 
	C447.914490,578.105713 449.742615,579.471558 451.443268,579.363708 
	C453.062225,579.261169 454.579529,577.555237 456.141541,576.554321 
	C454.840454,575.536804 453.680084,574.144043 452.204865,573.590820 
	C450.054199,572.784363 447.636475,572.724121 445.405823,572.088684 
	C441.923523,571.096802 439.599762,568.451416 440.489166,565.068481 
	C441.187378,562.412842 443.273743,559.130615 445.617981,558.082092 
	C453.137146,554.718872 459.421387,558.010620 460.878601,565.670959 
	C459.547607,565.670959 458.302765,565.670959 456.690552,565.532959 
z"/>
<path fill="#D3DCDC" opacity="1.000000" stroke="none" 
	d="
M576.560547,515.499390 
	C578.149231,514.469116 579.679321,513.895203 581.947998,513.044189 
	C581.947998,520.547913 582.345032,527.153015 581.817749,533.683533 
	C581.422058,538.584351 576.797668,541.170898 570.912415,540.778992 
	C564.312195,540.339539 560.574890,537.262817 560.213745,531.238159 
	C559.877808,525.632263 560.142090,519.990295 560.142090,514.044678 
	C562.100647,514.044678 563.833923,514.044678 565.960388,514.044678 
	C565.960388,518.854858 566.074951,523.472229 565.925659,528.081055 
	C565.796570,532.065186 566.702393,535.195435 571.359802,535.303162 
	C576.123291,535.413391 576.359375,531.976868 576.349121,528.413635 
	C576.337097,524.261169 576.445618,520.108337 576.560547,515.499390 
z"/>
<path fill="#D5DFDE" opacity="1.000000" stroke="none" 
	d="
M489.787537,524.128662 
	C493.220490,523.943359 495.845276,524.111633 494.289673,528.911987 
	C490.444672,528.911987 486.375153,528.911987 482.113617,528.911987 
	C482.113617,531.104919 482.113617,532.706909 482.113617,534.804443 
	C486.440369,534.804443 490.681519,534.804443 495.181030,534.804443 
	C495.181030,536.695618 495.181030,538.092041 495.181030,540.080811 
	C489.460693,540.080811 484.008514,540.087158 478.556427,540.073792 
	C477.766541,540.071838 476.976929,539.975403 475.955811,539.907227 
	C475.955811,531.218628 475.955811,522.818359 475.955811,514.085754 
	C482.318939,514.085754 488.552795,514.085754 495.079895,514.085754 
	C495.079895,515.492798 495.079895,516.910278 495.079895,518.876709 
	C490.850128,518.876709 486.620544,518.876709 482.201477,518.876709 
	C482.201477,520.814392 482.201477,522.204224 482.201477,524.122803 
	C484.746796,524.122803 487.039978,524.122803 489.787537,524.128662 
z"/>
<path fill="#D3DCDC" opacity="1.000000" stroke="none" 
	d="
M633.391602,531.008179 
	C630.186951,531.067932 627.407349,531.067932 624.264648,531.067932 
	C624.264648,534.101318 624.264648,536.688965 624.264648,539.606995 
	C622.179504,539.606995 620.459717,539.606995 618.490540,539.606995 
	C618.490540,531.131592 618.490540,522.718750 618.490540,513.445312 
	C622.549622,513.445312 626.468811,513.405823 630.386902,513.454895 
	C635.795105,513.522583 638.931763,515.876221 639.830811,520.444519 
	C640.771240,525.223145 638.747314,528.757935 633.391602,531.008179 
M633.162537,524.794006 
	C633.023376,523.000916 633.372803,519.918823 632.656860,519.647461 
	C630.131958,518.690491 627.241760,518.697144 624.473389,518.336121 
	C624.473389,521.553406 624.473389,523.622681 624.473389,526.278259 
	C627.411926,525.938171 629.972229,525.641907 633.162537,524.794006 
z"/>
<path fill="#D5DFDE" opacity="1.000000" stroke="none" 
	d="
M544.202332,531.273926 
	C542.720642,533.892639 541.691162,536.503540 540.429016,539.704468 
	C539.629272,539.748169 538.042114,539.834839 536.078857,539.942017 
	C536.078857,531.093628 536.078857,522.525696 536.078857,513.188171 
	C541.154846,513.476318 546.284912,513.393494 551.282410,514.167175 
	C555.430908,514.809387 557.222168,518.101257 557.323303,522.211975 
	C557.432007,526.628906 555.298645,529.568909 551.091614,530.687866 
	C549.039795,531.233582 546.805969,531.094910 544.202332,531.273926 
M547.190979,518.892639 
	C545.412659,518.892639 543.634338,518.892639 541.816284,518.892639 
	C541.816284,521.519531 541.816284,523.732422 541.816284,527.493103 
	C545.457153,526.034546 548.233032,524.922607 551.008850,523.810608 
	C550.027100,522.205200 549.045288,520.599792 547.190979,518.892639 
z"/>
<path fill="#D3DCDC" opacity="1.000000" stroke="none" 
	d="
M445.349365,534.325806 
	C442.806641,534.242188 440.614319,534.137878 438.489990,534.469116 
	C437.361176,534.645203 435.520203,535.461060 435.419617,536.185242 
	C434.729187,541.156006 431.377045,539.928101 427.666351,539.713806 
	C430.693512,531.435303 433.489563,523.465881 436.619110,515.629578 
	C437.020844,514.623596 439.173218,513.772766 440.482971,513.815735 
	C442.011810,513.865723 444.429565,514.603394 444.866913,515.686584 
	C447.974396,523.382996 450.673706,531.244202 453.516449,539.090027 
	C448.318695,540.453857 448.318695,540.453857 445.349365,534.325806 
M439.890564,529.504272 
	C441.231537,529.370728 442.572479,529.237122 444.106079,529.084351 
	C442.953644,525.802734 442.041718,523.205933 440.726379,519.460510 
	C439.447784,523.063293 438.528625,525.371643 437.873901,527.752686 
	C437.753326,528.191284 438.703827,528.924438 439.890564,529.504272 
z"/>
<path fill="#D1DBDB" opacity="1.000000" stroke="none" 
	d="
M523.076782,600.823120 
	C530.589172,596.414795 538.704529,599.577454 546.855957,599.499634 
	C547.389709,600.692078 547.586060,601.341064 547.702576,602.270752 
	C547.082642,603.048035 546.542419,603.544739 545.593750,603.935608 
	C543.787109,603.906738 542.388977,603.983704 540.692017,604.036011 
	C540.248291,604.343262 540.103271,604.675171 539.826843,605.448730 
	C539.725952,609.255493 539.756592,612.620667 539.787170,615.985779 
	C539.595703,618.926758 539.404236,621.867737 539.200562,624.995728 
	C537.393982,624.995728 535.789062,624.995728 533.605835,624.995728 
	C533.605835,618.060486 533.605835,611.209534 533.605835,604.014648 
	C530.806641,604.014648 528.572021,604.014648 526.161133,604.014648 
	C525.409607,602.609436 524.765381,601.404785 523.607849,600.365173 
	C523.094543,600.530212 523.076782,600.823120 523.076782,600.823120 
z"/>
<path fill="#CAD2D2" opacity="1.000000" stroke="none" 
	d="
M533.070801,561.383911 
	C533.204163,562.014099 533.192688,562.128540 532.748718,562.502808 
	C531.906067,562.771667 531.452942,562.888062 530.999817,563.004517 
	C529.192810,562.895264 527.385742,562.786072 525.024963,562.643372 
	C525.024963,569.736511 525.024963,576.591736 525.024963,583.749695 
	C522.922302,583.866577 521.340210,583.954529 519.278748,584.069092 
	C518.704163,576.960999 518.152771,570.139221 517.559753,562.803284 
	C516.006592,562.803284 514.138367,563.167358 512.534485,562.673340 
	C511.492767,562.352478 510.388702,560.863770 510.179260,559.737244 
	C510.058197,559.085815 511.640533,557.419373 512.485535,557.398560 
	C518.622375,557.247437 524.772400,557.287781 530.901306,557.599731 
	C531.642151,557.637390 532.282104,559.658691 533.070801,561.383911 
z"/>
<path fill="#D3DCDC" opacity="1.000000" stroke="none" 
	d="
M480.838623,568.598328 
	C479.110291,573.432190 477.381958,578.266113 475.376465,583.875061 
	C474.987244,583.896729 473.416260,583.984070 470.977234,584.119690 
	C474.014435,573.414001 466.106537,566.735962 462.434265,558.494141 
	C467.379089,557.401672 467.379089,557.401672 474.670166,567.736511 
	C476.204834,565.033447 477.735565,562.642029 478.961945,560.103455 
	C480.662537,556.583313 483.536652,557.677490 486.255157,557.964600 
	C486.177551,558.674255 486.099915,559.383972 485.658447,560.600098 
	C483.809235,563.603821 482.323914,566.101074 480.838623,568.598328 
z"/>
<path fill="#D5DFDE" opacity="1.000000" stroke="none" 
	d="
M461.028870,513.928833 
	C465.172363,513.928528 468.824799,513.928528 472.997437,513.928528 
	C473.080811,515.532959 473.159668,517.050049 473.262299,519.025391 
	C470.588470,519.025391 468.323364,519.025391 465.518921,519.025391 
	C465.518921,526.189941 465.518921,532.937012 465.518921,539.891785 
	C463.342529,539.891785 461.718872,539.891785 459.519165,539.891785 
	C459.519165,533.153625 459.519165,526.428406 459.519165,519.304993 
	C456.541779,519.174072 454.107544,519.067078 451.307770,518.944031 
	C451.195038,517.498901 451.085510,516.094849 450.916534,513.929199 
	C454.327332,513.929199 457.432587,513.929199 461.028870,513.928833 
z"/>
<path fill="#0D2F36" opacity="1.000000" stroke="none" 
	d="
M555.939697,578.173584 
	C550.907898,578.439270 546.311279,578.646790 541.449707,578.866333 
	C541.449707,576.659851 541.449707,575.076904 541.449707,572.908020 
	C545.720825,572.908020 549.961792,572.908020 554.464233,572.908020 
	C554.464233,571.086609 554.464233,569.846252 554.464233,568.161255 
	C550.296570,568.161255 546.203552,568.161255 541.631165,568.161255 
	C541.522583,566.201660 541.436829,564.655151 541.327209,562.677490 
	C546.157776,562.462708 550.591003,562.265564 555.434326,561.869690 
	C556.663086,562.110107 557.481689,562.549255 558.671692,562.995239 
	C559.118408,565.704529 559.193787,568.406921 559.005005,571.644897 
	C558.679138,572.286072 558.539612,572.446716 558.568848,572.488159 
	C558.704285,572.679932 558.886719,572.838501 559.052246,573.009033 
	C559.105225,574.401062 559.158142,575.793152 559.108215,577.592529 
	C558.128540,578.038330 557.251709,578.076904 555.939697,578.173584 
z"/>
<path fill="#0D2F36" opacity="1.000000" stroke="none" 
	d="
M480.982544,568.950928 
	C482.323914,566.101074 483.809235,563.603821 485.581726,560.919312 
	C486.500977,561.166870 487.133087,561.601562 488.154297,562.114868 
	C487.784698,568.138000 489.915009,571.301575 495.648895,572.692566 
	C496.453369,572.887695 497.367676,572.778137 498.096832,573.107117 
	C500.090393,574.006836 502.012299,575.065430 503.962585,576.061096 
	C503.197266,577.205200 502.408813,579.331482 501.670929,579.314026 
	C499.200104,579.255737 496.671326,578.650696 494.311157,577.832703 
	C492.350281,577.153015 490.595856,575.877625 488.342896,574.922485 
	C485.155365,575.191833 482.374939,575.404846 479.862610,575.597290 
	C480.178284,574.025208 480.652374,571.664368 480.982544,568.950928 
z"/>
<path fill="#DAE2E2" opacity="1.000000" stroke="none" 
	d="
M522.844482,600.358276 
	C523.076782,600.823120 523.094543,600.530212 523.090698,600.481567 
	C523.086792,608.478760 523.086792,616.524658 523.086792,624.840881 
	C520.740051,624.840881 519.017578,624.840881 517.079895,624.840881 
	C516.782532,618.030457 516.489380,611.317078 515.657227,604.540344 
	C515.118347,604.476929 515.081909,604.396790 515.100586,604.392700 
	C515.918762,602.738708 516.718384,601.088745 517.867798,598.716858 
	C519.090515,599.020081 520.851318,599.456726 522.844482,600.358276 
z"/>
<path fill="#0D2F36" opacity="1.000000" stroke="none" 
	d="
M530.951782,563.381714 
	C531.452942,562.888062 531.906067,562.771667 532.700684,562.571777 
	C533.848633,563.448059 535.298462,564.372925 535.352722,565.373535 
	C535.620239,570.306458 535.518005,575.259521 535.415222,580.591553 
	C528.688965,580.985413 526.940369,578.815369 528.455872,572.226257 
	C529.113403,569.367432 530.078308,566.579224 530.951782,563.381714 
z"/>
<path fill="#0D2F36" opacity="1.000000" stroke="none" 
	d="
M540.168457,615.981201 
	C539.756592,612.620667 539.725952,609.255493 540.040527,605.340454 
	C540.657776,604.605591 540.859436,604.362305 540.990784,604.060669 
	C542.388977,603.983704 543.787109,603.906738 545.668457,604.294373 
	C546.896118,605.745239 547.640564,606.731567 548.385010,607.717834 
	C548.326599,608.600708 548.268250,609.483582 548.100586,610.683350 
	C545.510803,612.659119 543.030273,614.317871 540.168457,615.981201 
z"/>
<path fill="#0D2F36" opacity="1.000000" stroke="none" 
	d="
M505.455444,606.879333 
	C505.874054,607.441223 505.935333,607.891846 505.462769,608.676758 
	C504.040985,609.088684 503.153076,609.166382 502.265198,609.244019 
	C500.504211,606.490051 498.743225,603.736084 496.920410,600.655396 
	C501.159882,598.235474 503.476379,599.389832 504.032135,603.792603 
	C504.160919,604.812988 504.731049,605.777710 505.455444,606.879333 
z"/>
<path fill="#0D2F36" opacity="1.000000" stroke="none" 
	d="
M485.351746,605.009399 
	C483.960754,603.776611 482.975006,602.538452 481.838806,601.048157 
	C482.069214,598.758423 482.819946,597.507446 484.873169,599.420593 
	C486.066833,600.532776 487.184998,601.725952 488.673218,602.941467 
	C489.075562,603.448364 489.141724,603.896606 489.103699,604.672363 
	C487.918701,605.001343 486.837891,605.002686 485.351746,605.009399 
z"/>
<path fill="#0D2F36" opacity="1.000000" stroke="none" 
	d="
M460.658081,604.749756 
	C460.641754,606.105774 460.394073,607.234680 460.007874,608.683838 
	C459.067596,607.044250 458.265869,605.084473 457.464142,603.124695 
	C457.974335,602.899414 458.484528,602.674194 458.994720,602.448914 
	C459.472046,603.140198 459.949402,603.831421 460.658081,604.749756 
z"/>
<path fill="#0D2F36" opacity="1.000000" stroke="none" 
	d="
M547.782349,601.990112 
	C547.586060,601.341064 547.389709,600.692078 547.230652,599.697815 
	C549.100159,598.804199 551.395691,596.419556 552.087158,600.962646 
	C552.133850,601.660950 552.010559,601.883789 551.117493,602.046021 
	C549.578064,602.034241 548.680176,602.012146 547.782349,601.990112 
z"/>
<path fill="#0D2F36" opacity="1.000000" stroke="none" 
	d="
M565.501709,573.010742 
	C565.147461,571.647278 565.072998,570.285278 564.998535,568.923218 
	C565.238220,568.875488 565.477905,568.827759 565.717590,568.780029 
	C566.116394,569.955994 566.515198,571.131897 566.907288,572.655945 
	C566.527588,573.006714 566.154541,573.009399 565.501709,573.010742 
z"/>
<path fill="#07282E" opacity="1.000000" stroke="none" 
	d="
M559.130493,572.754272 
	C558.886719,572.838501 558.704285,572.679932 558.568848,572.488159 
	C558.539612,572.446716 558.679138,572.286072 558.899658,572.084290 
	C559.108521,572.158691 559.158569,572.329102 559.130493,572.754272 
z"/>
<path fill="#082930" opacity="1.000000" stroke="none" 
	d="
M502.378479,609.560913 
	C503.153076,609.166382 504.040985,609.088684 505.373657,609.009033 
	C505.865295,609.177185 505.912201,609.347351 505.688751,609.936096 
	C505.000824,610.891052 504.583313,611.427368 504.165802,611.963745 
	C503.607788,611.268494 503.049774,610.573181 502.378479,609.560913 
z"/>
<path fill="#0D2F36" opacity="1.000000" stroke="none" 
	d="
M504.257385,612.291626 
	C504.583313,611.427368 505.000824,610.891052 505.617371,610.191040 
	C505.781586,611.203979 505.746826,612.380554 505.712067,613.557190 
	C505.257690,613.244690 504.803314,612.932129 504.257385,612.291626 
z"/>
<path fill="#193A40" opacity="1.000000" stroke="none" 
	d="
M585.608459,610.734558 
	C584.882019,608.581787 584.564575,606.523132 584.137817,603.755859 
	C587.093018,603.755859 589.602295,603.328735 591.843018,603.919800 
	C593.137878,604.261353 594.877075,606.294800 594.810120,607.475647 
	C594.742798,608.663086 592.858643,610.245605 591.452393,610.728638 
	C589.821594,611.288696 587.844299,610.839661 585.608459,610.734558 
z"/>
<path fill="#193A40" opacity="1.000000" stroke="none" 
	d="
M514.438110,519.443970 
	C516.733704,524.420593 515.995178,525.687134 511.053711,525.904175 
	C509.400909,525.976807 507.742218,525.915710 505.715454,525.915710 
	C505.715454,523.480103 505.715454,521.277588 505.715454,518.377686 
	C508.647247,518.663025 511.387970,518.929749 514.438110,519.443970 
z"/>
<path fill="#0D2F36" opacity="1.000000" stroke="none" 
	d="
M480.190125,612.836548 
	C479.726715,617.335388 477.930328,620.251770 473.448303,620.413269 
	C470.170502,620.531372 467.584930,619.193604 466.687958,615.774658 
	C465.592957,611.601135 465.359894,607.253540 469.074005,604.406067 
	C470.514099,603.302002 473.549225,603.443054 475.532715,604.060730 
	C479.394867,605.263367 480.447174,608.616028 480.190125,612.836548 
z"/>
<path fill="#0D2F36" opacity="1.000000" stroke="none" 
	d="
M554.671021,615.056091 
	C553.627686,607.606750 555.764221,603.604614 560.725830,603.444031 
	C564.825317,603.311401 567.727661,605.071289 568.673706,609.335632 
	C569.724243,614.071350 567.738037,618.912537 564.159546,620.322632 
	C560.496948,621.765869 557.307617,620.097839 554.671021,615.056091 
z"/>
<path fill="#082930" opacity="1.000000" stroke="none" 
	d="
M547.702576,602.270691 
	C548.680176,602.012146 549.578064,602.034241 550.923645,602.089844 
	C550.519836,603.801758 549.668213,605.480103 548.600830,607.438171 
	C547.640564,606.731567 546.896118,605.745239 546.076965,604.400208 
	C546.542419,603.544739 547.082642,603.048035 547.702576,602.270691 
z"/>
<path fill="#193A40" opacity="1.000000" stroke="none" 
	d="
M632.847534,525.069824 
	C629.972229,525.641907 627.411926,525.938171 624.473389,526.278259 
	C624.473389,523.622681 624.473389,521.553406 624.473389,518.336121 
	C627.241760,518.697144 630.131958,518.690491 632.656860,519.647461 
	C633.372803,519.918823 633.023376,523.000916 632.847534,525.069824 
z"/>
<path fill="#0D2F36" opacity="1.000000" stroke="none" 
	d="
M547.627258,518.943481 
	C549.045288,520.599792 550.027100,522.205200 551.008850,523.810608 
	C548.233032,524.922607 545.457153,526.034546 541.816284,527.493103 
	C541.816284,523.732422 541.816284,521.519531 541.816284,518.892639 
	C543.634338,518.892639 545.412659,518.892639 547.627258,518.943481 
z"/>
<path fill="#193A40" opacity="1.000000" stroke="none" 
	d="
M439.525269,529.512939 
	C438.703827,528.924438 437.753326,528.191284 437.873901,527.752686 
	C438.528625,525.371643 439.447784,523.063293 440.726379,519.460510 
	C442.041718,523.205933 442.953644,525.802734 444.106079,529.084351 
	C442.572479,529.237122 441.231537,529.370728 439.525269,529.512939 
z"/>
<path fill="#082930" opacity="1.000000" stroke="none" 
	d="
M540.692017,604.036011 
	C540.859436,604.362305 540.657776,604.605591 540.171997,604.898804 
	C540.103271,604.675171 540.248291,604.343262 540.692017,604.036011 
z"/>
</svg>